<mxfile host="app.diagrams.net" modified="2023-11-19T12:34:39.012Z" agent="Mozilla/5.0 (Windows NT 10.0; Win64; x64) AppleWebKit/537.36 (KHTML, like Gecko) Chrome/119.0.0.0 Safari/537.36" etag="9Pyude3aJQn_MnFUdBka" version="22.1.3" type="device">
  <diagram id="C5RBs43oDa-KdzZeNtuy" name="Page-1">
    <mxGraphModel dx="1050" dy="585" grid="1" gridSize="10" guides="1" tooltips="1" connect="1" arrows="1" fold="1" page="1" pageScale="1" pageWidth="2339" pageHeight="3300" math="0" shadow="0">
      <root>
        <mxCell id="WIyWlLk6GJQsqaUBKTNV-0" />
        <mxCell id="WIyWlLk6GJQsqaUBKTNV-1" parent="WIyWlLk6GJQsqaUBKTNV-0" />
        <mxCell id="7W5CvfdrQPlZcDnJv3r3-0" value="CPublisher" style="swimlane;fontStyle=1;align=center;verticalAlign=top;childLayout=stackLayout;horizontal=1;startSize=26;horizontalStack=0;resizeParent=1;resizeParentMax=0;resizeLast=0;collapsible=1;marginBottom=0;whiteSpace=wrap;html=1;" parent="WIyWlLk6GJQsqaUBKTNV-1" vertex="1">
          <mxGeometry x="310" y="110" width="160" height="100" as="geometry">
            <mxRectangle x="40" y="160" width="100" height="30" as="alternateBounds" />
          </mxGeometry>
        </mxCell>
        <mxCell id="7W5CvfdrQPlZcDnJv3r3-1" value="- children: ISubscriber [*]" style="text;strokeColor=none;fillColor=none;align=left;verticalAlign=top;spacingLeft=4;spacingRight=4;overflow=hidden;rotatable=0;points=[[0,0.5],[1,0.5]];portConstraint=eastwest;whiteSpace=wrap;html=1;" parent="7W5CvfdrQPlZcDnJv3r3-0" vertex="1">
          <mxGeometry y="26" width="160" height="26" as="geometry" />
        </mxCell>
        <mxCell id="7W5CvfdrQPlZcDnJv3r3-2" value="" style="line;strokeWidth=1;fillColor=none;align=left;verticalAlign=middle;spacingTop=-1;spacingLeft=3;spacingRight=3;rotatable=0;labelPosition=right;points=[];portConstraint=eastwest;strokeColor=inherit;" parent="7W5CvfdrQPlZcDnJv3r3-0" vertex="1">
          <mxGeometry y="52" width="160" height="8" as="geometry" />
        </mxCell>
        <mxCell id="7W5CvfdrQPlZcDnJv3r3-3" value="+ addSubscriber (ISubscriber) : void" style="text;strokeColor=none;fillColor=none;align=left;verticalAlign=top;spacingLeft=4;spacingRight=4;overflow=hidden;rotatable=0;points=[[0,0.5],[1,0.5]];portConstraint=eastwest;whiteSpace=wrap;html=1;" parent="7W5CvfdrQPlZcDnJv3r3-0" vertex="1">
          <mxGeometry y="60" width="160" height="40" as="geometry" />
        </mxCell>
        <mxCell id="7W5CvfdrQPlZcDnJv3r3-6" value="" style="text;strokeColor=none;fillColor=none;align=left;verticalAlign=middle;spacingTop=-1;spacingLeft=4;spacingRight=4;rotatable=0;labelPosition=right;points=[];portConstraint=eastwest;" parent="WIyWlLk6GJQsqaUBKTNV-1" vertex="1">
          <mxGeometry x="400" y="300" width="20" height="14" as="geometry" />
        </mxCell>
        <mxCell id="7W5CvfdrQPlZcDnJv3r3-10" value="&lt;p style=&quot;margin:0px;margin-top:4px;text-align:center;&quot;&gt;&lt;i&gt;&amp;lt;&amp;lt;Interface&amp;gt;&amp;gt;&lt;/i&gt;&lt;br&gt;&lt;b&gt;IPublisher&lt;/b&gt;&lt;/p&gt;&lt;hr size=&quot;1&quot;&gt;&lt;p style=&quot;margin:0px;margin-left:4px;&quot;&gt;~ addSubscriber (ISubscriber): void&lt;br&gt;~ removeSubscriber (ISubscriber): void&lt;/p&gt;&lt;p style=&quot;margin:0px;margin-left:4px;&quot;&gt;~ notifySubscriber (Object): void&lt;/p&gt;" style="verticalAlign=top;align=left;overflow=fill;fontSize=12;fontFamily=Helvetica;html=1;whiteSpace=wrap;" parent="WIyWlLk6GJQsqaUBKTNV-1" vertex="1">
          <mxGeometry x="30" y="47.5" width="220" height="100" as="geometry" />
        </mxCell>
        <mxCell id="7W5CvfdrQPlZcDnJv3r3-11" value="&lt;p style=&quot;margin:0px;margin-top:4px;text-align:center;&quot;&gt;&lt;i&gt;&amp;lt;&amp;lt;Interface&amp;gt;&amp;gt;&lt;/i&gt;&lt;br&gt;&lt;b&gt;ISubscriber&lt;/b&gt;&lt;/p&gt;&lt;hr size=&quot;1&quot;&gt;&lt;p style=&quot;margin:0px;margin-left:4px;&quot;&gt;~ update (Object): void&lt;/p&gt;" style="verticalAlign=top;align=left;overflow=fill;fontSize=12;fontFamily=Helvetica;html=1;whiteSpace=wrap;" parent="WIyWlLk6GJQsqaUBKTNV-1" vertex="1">
          <mxGeometry x="1490" y="538" width="190" height="80" as="geometry" />
        </mxCell>
        <mxCell id="7W5CvfdrQPlZcDnJv3r3-15" value="" style="endArrow=block;dashed=1;endFill=0;endSize=12;html=1;rounded=0;entryX=1;entryY=0.25;entryDx=0;entryDy=0;exitX=0;exitY=0.5;exitDx=0;exitDy=0;" parent="WIyWlLk6GJQsqaUBKTNV-1" source="7W5CvfdrQPlZcDnJv3r3-1" target="7W5CvfdrQPlZcDnJv3r3-10" edge="1">
          <mxGeometry width="160" relative="1" as="geometry">
            <mxPoint x="300" y="140" as="sourcePoint" />
            <mxPoint x="250" y="320" as="targetPoint" />
          </mxGeometry>
        </mxCell>
        <mxCell id="7W5CvfdrQPlZcDnJv3r3-16" value="&lt;p style=&quot;margin:0px;margin-top:4px;text-align:center;&quot;&gt;&lt;b&gt;{abstract}&lt;/b&gt;&lt;/p&gt;&lt;p style=&quot;margin:0px;margin-top:4px;text-align:center;&quot;&gt;&lt;b&gt;ClassyNode&lt;/b&gt;&lt;/p&gt;&lt;hr size=&quot;1&quot;&gt;&lt;p style=&quot;margin:0px;margin-left:4px;&quot;&gt;- name: String&lt;/p&gt;&lt;p style=&quot;margin:0px;margin-left:4px;&quot;&gt;- parent: ClassyNode&lt;/p&gt;&lt;hr size=&quot;1&quot;&gt;&lt;p style=&quot;margin:0px;margin-left:4px;&quot;&gt;+ setName (String): void;&lt;/p&gt;&lt;p style=&quot;margin:0px;margin-left:4px;&quot;&gt;+ setParent (ClassyNode): void&lt;/p&gt;" style="verticalAlign=top;align=left;overflow=fill;fontSize=12;fontFamily=Helvetica;html=1;whiteSpace=wrap;" parent="WIyWlLk6GJQsqaUBKTNV-1" vertex="1">
          <mxGeometry x="459" y="247" width="181" height="130" as="geometry" />
        </mxCell>
        <mxCell id="7W5CvfdrQPlZcDnJv3r3-23" value="" style="endArrow=block;endSize=16;endFill=0;html=1;rounded=0;exitX=0.5;exitY=0;exitDx=0;exitDy=0;entryX=0.775;entryY=0.975;entryDx=0;entryDy=0;entryPerimeter=0;" parent="WIyWlLk6GJQsqaUBKTNV-1" source="7W5CvfdrQPlZcDnJv3r3-16" target="7W5CvfdrQPlZcDnJv3r3-3" edge="1">
          <mxGeometry width="160" relative="1" as="geometry">
            <mxPoint x="380" y="250" as="sourcePoint" />
            <mxPoint x="540" y="250" as="targetPoint" />
          </mxGeometry>
        </mxCell>
        <mxCell id="7W5CvfdrQPlZcDnJv3r3-24" value="&lt;p style=&quot;margin:0px;margin-top:4px;text-align:center;&quot;&gt;&lt;b&gt;{abstract}&lt;/b&gt;&lt;/p&gt;&lt;p style=&quot;margin:0px;margin-top:4px;text-align:center;&quot;&gt;&lt;b&gt;ClassyNodeComposite&lt;/b&gt;&lt;/p&gt;&lt;hr size=&quot;1&quot;&gt;&lt;p style=&quot;margin:0px;margin-left:4px;&quot;&gt;# children: ClassyNode [*]&lt;/p&gt;&lt;p style=&quot;margin:0px;margin-left:4px;&quot;&gt;- counter: int&lt;/p&gt;&lt;hr size=&quot;1&quot;&gt;&lt;p style=&quot;margin:0px;margin-left:4px;&quot;&gt;+ addChild (ClassyNode): void&lt;/p&gt;&lt;p style=&quot;margin:0px;margin-left:4px;&quot;&gt;+ removeChild (ClassyNode): void&lt;/p&gt;&lt;p style=&quot;margin:0px;margin-left:4px;&quot;&gt;+ containsSameNameComponent (String): boolean&lt;/p&gt;&lt;p style=&quot;margin:0px;margin-left:4px;&quot;&gt;+ setCounter(): void;&lt;/p&gt;&lt;p style=&quot;margin:0px;margin-left:4px;&quot;&gt;+ getCounter(): int&lt;/p&gt;&lt;p style=&quot;margin:0px;margin-left:4px;&quot;&gt;+ getChildren(): List&amp;lt;ClassyNode&amp;gt;&lt;/p&gt;" style="verticalAlign=top;align=left;overflow=fill;fontSize=12;fontFamily=Helvetica;html=1;whiteSpace=wrap;" parent="WIyWlLk6GJQsqaUBKTNV-1" vertex="1">
          <mxGeometry x="690" y="220" width="190" height="196" as="geometry" />
        </mxCell>
        <mxCell id="7W5CvfdrQPlZcDnJv3r3-26" value="&lt;p style=&quot;margin:0px;margin-top:4px;text-align:center;&quot;&gt;&lt;i&gt;&amp;lt;&amp;lt;Interface&amp;gt;&amp;gt;&lt;/i&gt;&lt;br&gt;&lt;b&gt;ClassyRepository&lt;/b&gt;&lt;/p&gt;&lt;hr size=&quot;1&quot;&gt;&lt;p style=&quot;margin:0px;margin-left:4px;&quot;&gt;~ projectExplorer: ProjectExplorer&lt;/p&gt;&lt;hr size=&quot;1&quot;&gt;&lt;p style=&quot;margin:0px;margin-left:4px;&quot;&gt;~ addChild (ClassyNodeComposite, ClassyNode)&lt;/p&gt;" style="verticalAlign=top;align=left;overflow=fill;fontSize=12;fontFamily=Helvetica;html=1;whiteSpace=wrap;" parent="WIyWlLk6GJQsqaUBKTNV-1" vertex="1">
          <mxGeometry x="500" y="50" width="210" height="110" as="geometry" />
        </mxCell>
        <mxCell id="7W5CvfdrQPlZcDnJv3r3-27" value="&lt;p style=&quot;margin:0px;margin-top:4px;text-align:center;&quot;&gt;&lt;b&gt;ClassyRepositoryImplementation&lt;/b&gt;&lt;/p&gt;&lt;hr size=&quot;1&quot;&gt;&lt;p style=&quot;margin:0px;margin-left:4px;&quot;&gt;- projectExplorer: ProjectExplorer&lt;/p&gt;&lt;hr size=&quot;1&quot;&gt;&lt;p style=&quot;margin:0px;margin-left:4px;&quot;&gt;+ addChild (ClassyNodeComposite, ClassyNode): void&lt;/p&gt;&lt;p style=&quot;margin:0px;margin-left:4px;&quot;&gt;+getProjectExplorer (): ProjectExplorer&lt;/p&gt;" style="verticalAlign=top;align=left;overflow=fill;fontSize=12;fontFamily=Helvetica;html=1;whiteSpace=wrap;" parent="WIyWlLk6GJQsqaUBKTNV-1" vertex="1">
          <mxGeometry x="770" y="45" width="230" height="105" as="geometry" />
        </mxCell>
        <mxCell id="7W5CvfdrQPlZcDnJv3r3-28" value="" style="endArrow=block;dashed=1;endFill=0;endSize=12;html=1;rounded=0;entryX=1.004;entryY=0.58;entryDx=0;entryDy=0;entryPerimeter=0;exitX=0;exitY=0.5;exitDx=0;exitDy=0;" parent="WIyWlLk6GJQsqaUBKTNV-1" source="7W5CvfdrQPlZcDnJv3r3-27" target="7W5CvfdrQPlZcDnJv3r3-26" edge="1">
          <mxGeometry width="160" relative="1" as="geometry">
            <mxPoint x="460" y="200" as="sourcePoint" />
            <mxPoint x="620" y="200" as="targetPoint" />
          </mxGeometry>
        </mxCell>
        <mxCell id="7W5CvfdrQPlZcDnJv3r3-29" value="&lt;p style=&quot;margin:0px;margin-top:4px;text-align:center;&quot;&gt;&lt;b&gt;Diagram&lt;/b&gt;&lt;/p&gt;" style="verticalAlign=top;align=left;overflow=fill;fontSize=12;fontFamily=Helvetica;html=1;whiteSpace=wrap;" parent="WIyWlLk6GJQsqaUBKTNV-1" vertex="1">
          <mxGeometry x="340" y="430" width="160" height="30" as="geometry" />
        </mxCell>
        <mxCell id="7W5CvfdrQPlZcDnJv3r3-30" value="" style="endArrow=block;endSize=16;endFill=0;html=1;rounded=0;exitX=0.584;exitY=-0.14;exitDx=0;exitDy=0;exitPerimeter=0;entryX=0.116;entryY=1.023;entryDx=0;entryDy=0;entryPerimeter=0;" parent="WIyWlLk6GJQsqaUBKTNV-1" source="7W5CvfdrQPlZcDnJv3r3-29" target="7W5CvfdrQPlZcDnJv3r3-16" edge="1">
          <mxGeometry width="160" relative="1" as="geometry">
            <mxPoint x="460" y="400" as="sourcePoint" />
            <mxPoint x="300" y="420" as="targetPoint" />
          </mxGeometry>
        </mxCell>
        <mxCell id="7W5CvfdrQPlZcDnJv3r3-31" value="&lt;p style=&quot;margin:0px;margin-top:4px;text-align:center;&quot;&gt;&lt;b&gt;Package&lt;/b&gt;&lt;/p&gt;&lt;hr size=&quot;1&quot;&gt;&lt;p style=&quot;margin:0px;margin-left:4px;&quot;&gt;+ addChild(ClassyNode): void&lt;/p&gt;&lt;p style=&quot;margin:0px;margin-left:4px;&quot;&gt;+ setName(String): void&lt;/p&gt;" style="verticalAlign=top;align=left;overflow=fill;fontSize=12;fontFamily=Helvetica;html=1;whiteSpace=wrap;" parent="WIyWlLk6GJQsqaUBKTNV-1" vertex="1">
          <mxGeometry x="410" y="475" width="170" height="70" as="geometry" />
        </mxCell>
        <mxCell id="7W5CvfdrQPlZcDnJv3r3-32" value="" style="endArrow=block;endSize=16;endFill=0;html=1;rounded=0;exitX=0.628;exitY=-0.043;exitDx=0;exitDy=0;exitPerimeter=0;entryX=-0.023;entryY=0.887;entryDx=0;entryDy=0;entryPerimeter=0;" parent="WIyWlLk6GJQsqaUBKTNV-1" source="7W5CvfdrQPlZcDnJv3r3-31" target="7W5CvfdrQPlZcDnJv3r3-24" edge="1">
          <mxGeometry width="160" relative="1" as="geometry">
            <mxPoint x="460" y="400" as="sourcePoint" />
            <mxPoint x="620" y="400" as="targetPoint" />
          </mxGeometry>
        </mxCell>
        <mxCell id="7W5CvfdrQPlZcDnJv3r3-33" value="&lt;p style=&quot;margin:0px;margin-top:4px;text-align:center;&quot;&gt;&lt;b&gt;Project&lt;/b&gt;&lt;/p&gt;&lt;hr size=&quot;1&quot;&gt;&lt;p style=&quot;margin:0px;margin-left:4px;&quot;&gt;# filePath: String&lt;/p&gt;&lt;p style=&quot;margin:0px;margin-left:4px;&quot;&gt;- author: String&lt;/p&gt;&lt;hr size=&quot;1&quot;&gt;&lt;p style=&quot;margin:0px;margin-left:4px;&quot;&gt;+ addChild(ClassyNode): void&lt;/p&gt;&lt;p style=&quot;margin:0px;margin-left:4px;&quot;&gt;+ setAuthor(String): void&lt;/p&gt;&lt;p style=&quot;margin:0px;margin-left:4px;&quot;&gt;+ setFilePath(String): void&lt;/p&gt;&lt;p style=&quot;margin:0px;margin-left:4px;&quot;&gt;+ setName(String): void&lt;/p&gt;" style="verticalAlign=top;align=left;overflow=fill;fontSize=12;fontFamily=Helvetica;html=1;whiteSpace=wrap;" parent="WIyWlLk6GJQsqaUBKTNV-1" vertex="1">
          <mxGeometry x="580" y="488" width="170" height="130" as="geometry" />
        </mxCell>
        <mxCell id="7W5CvfdrQPlZcDnJv3r3-35" value="" style="endArrow=block;endSize=16;endFill=0;html=1;rounded=0;exitX=0.318;exitY=-0.023;exitDx=0;exitDy=0;exitPerimeter=0;entryX=0.566;entryY=1.005;entryDx=0;entryDy=0;entryPerimeter=0;" parent="WIyWlLk6GJQsqaUBKTNV-1" source="7W5CvfdrQPlZcDnJv3r3-33" target="7W5CvfdrQPlZcDnJv3r3-24" edge="1">
          <mxGeometry x="0.109" y="-14" width="160" relative="1" as="geometry">
            <mxPoint x="460" y="400" as="sourcePoint" />
            <mxPoint x="620" y="400" as="targetPoint" />
            <mxPoint as="offset" />
          </mxGeometry>
        </mxCell>
        <mxCell id="7W5CvfdrQPlZcDnJv3r3-36" value="&lt;p style=&quot;margin:0px;margin-top:4px;text-align:center;&quot;&gt;&lt;b&gt;ProjectExplorer&lt;/b&gt;&lt;/p&gt;&lt;hr size=&quot;1&quot;&gt;&lt;p style=&quot;margin:0px;margin-left:4px;&quot;&gt;+ addChild(ClassyNode): void&lt;/p&gt;" style="verticalAlign=top;align=left;overflow=fill;fontSize=12;fontFamily=Helvetica;html=1;whiteSpace=wrap;" parent="WIyWlLk6GJQsqaUBKTNV-1" vertex="1">
          <mxGeometry x="757" y="470" width="173" height="50" as="geometry" />
        </mxCell>
        <mxCell id="7W5CvfdrQPlZcDnJv3r3-37" value="" style="endArrow=block;endSize=16;endFill=0;html=1;rounded=0;exitX=0.25;exitY=0;exitDx=0;exitDy=0;entryX=0.842;entryY=1;entryDx=0;entryDy=0;entryPerimeter=0;" parent="WIyWlLk6GJQsqaUBKTNV-1" source="7W5CvfdrQPlZcDnJv3r3-36" target="7W5CvfdrQPlZcDnJv3r3-24" edge="1">
          <mxGeometry width="160" relative="1" as="geometry">
            <mxPoint x="460" y="300" as="sourcePoint" />
            <mxPoint x="620" y="300" as="targetPoint" />
          </mxGeometry>
        </mxCell>
        <mxCell id="7W5CvfdrQPlZcDnJv3r3-38" value="&lt;p style=&quot;margin:0px;margin-top:4px;text-align:center;&quot;&gt;&lt;b&gt;FactoyUtils&lt;/b&gt;&lt;/p&gt;&lt;hr size=&quot;1&quot;&gt;&lt;p style=&quot;margin:0px;margin-left:4px;&quot;&gt;+ nodeFactory (ClassyTreeItem): nodeFactory&lt;/p&gt;" style="verticalAlign=top;align=left;overflow=fill;fontSize=12;fontFamily=Helvetica;html=1;whiteSpace=wrap;" parent="WIyWlLk6GJQsqaUBKTNV-1" vertex="1">
          <mxGeometry x="430" y="650" width="180" height="70" as="geometry" />
        </mxCell>
        <mxCell id="7W5CvfdrQPlZcDnJv3r3-39" value="&lt;p style=&quot;margin:0px;margin-top:4px;text-align:center;&quot;&gt;&lt;b&gt;{abstract}&lt;/b&gt;&lt;/p&gt;&lt;p style=&quot;margin:0px;margin-top:4px;text-align:center;&quot;&gt;&lt;b&gt;NodeFactory&lt;/b&gt;&lt;/p&gt;&lt;hr size=&quot;1&quot;&gt;&lt;p style=&quot;margin:0px;margin-left:4px;&quot;&gt;+ createNode (ClassyTreeItem): ClassyTreeItem&lt;/p&gt;" style="verticalAlign=top;align=left;overflow=fill;fontSize=12;fontFamily=Helvetica;html=1;whiteSpace=wrap;" parent="WIyWlLk6GJQsqaUBKTNV-1" vertex="1">
          <mxGeometry x="230" y="640" width="180" height="90" as="geometry" />
        </mxCell>
        <mxCell id="7W5CvfdrQPlZcDnJv3r3-40" value="&lt;p style=&quot;margin:0px;margin-top:4px;text-align:center;&quot;&gt;&lt;b&gt;DiagramFactory&lt;/b&gt;&lt;/p&gt;&lt;hr size=&quot;1&quot;&gt;&lt;p style=&quot;margin:0px;margin-left:4px;&quot;&gt;&lt;span style=&quot;background-color: initial;&quot;&gt;+ createNode (ClassyTreeItem): ClassyTreeItem&lt;/span&gt;&lt;/p&gt;" style="verticalAlign=top;align=left;overflow=fill;fontSize=12;fontFamily=Helvetica;html=1;whiteSpace=wrap;" parent="WIyWlLk6GJQsqaUBKTNV-1" vertex="1">
          <mxGeometry x="35" y="760" width="175" height="70" as="geometry" />
        </mxCell>
        <mxCell id="7W5CvfdrQPlZcDnJv3r3-41" value="" style="endArrow=block;endSize=16;endFill=0;html=1;rounded=0;exitX=0.25;exitY=0;exitDx=0;exitDy=0;entryX=-0.018;entryY=0.42;entryDx=0;entryDy=0;entryPerimeter=0;" parent="WIyWlLk6GJQsqaUBKTNV-1" source="7W5CvfdrQPlZcDnJv3r3-40" target="7W5CvfdrQPlZcDnJv3r3-39" edge="1">
          <mxGeometry width="160" relative="1" as="geometry">
            <mxPoint x="450" y="620" as="sourcePoint" />
            <mxPoint x="610" y="620" as="targetPoint" />
          </mxGeometry>
        </mxCell>
        <mxCell id="7W5CvfdrQPlZcDnJv3r3-42" value="&lt;p style=&quot;margin:0px;margin-top:4px;text-align:center;&quot;&gt;&lt;b&gt;PackageFactory&lt;/b&gt;&lt;/p&gt;&lt;hr size=&quot;1&quot;&gt;&lt;p style=&quot;margin:0px;margin-left:4px;&quot;&gt;&lt;span style=&quot;background-color: initial;&quot;&gt;+ createNode (ClassyTreeItem): ClassyTreeItem&lt;/span&gt;&lt;/p&gt;" style="verticalAlign=top;align=left;overflow=fill;fontSize=12;fontFamily=Helvetica;html=1;whiteSpace=wrap;" parent="WIyWlLk6GJQsqaUBKTNV-1" vertex="1">
          <mxGeometry x="235" y="790" width="175" height="70" as="geometry" />
        </mxCell>
        <mxCell id="7W5CvfdrQPlZcDnJv3r3-43" value="&lt;p style=&quot;margin:0px;margin-top:4px;text-align:center;&quot;&gt;&lt;b&gt;ProjectFactory&lt;/b&gt;&lt;/p&gt;&lt;hr size=&quot;1&quot;&gt;&lt;p style=&quot;margin:0px;margin-left:4px;&quot;&gt;&lt;span style=&quot;background-color: initial;&quot;&gt;+ createNode (ClassyTreeItem): ClassyTreeItem&lt;/span&gt;&lt;/p&gt;" style="verticalAlign=top;align=left;overflow=fill;fontSize=12;fontFamily=Helvetica;html=1;whiteSpace=wrap;" parent="WIyWlLk6GJQsqaUBKTNV-1" vertex="1">
          <mxGeometry x="450" y="760" width="175" height="70" as="geometry" />
        </mxCell>
        <mxCell id="7W5CvfdrQPlZcDnJv3r3-44" value="" style="endArrow=block;endSize=16;endFill=0;html=1;rounded=0;exitX=0.75;exitY=0;exitDx=0;exitDy=0;entryX=0.5;entryY=1;entryDx=0;entryDy=0;" parent="WIyWlLk6GJQsqaUBKTNV-1" source="7W5CvfdrQPlZcDnJv3r3-42" target="7W5CvfdrQPlZcDnJv3r3-39" edge="1">
          <mxGeometry width="160" relative="1" as="geometry">
            <mxPoint x="450" y="620" as="sourcePoint" />
            <mxPoint x="610" y="620" as="targetPoint" />
          </mxGeometry>
        </mxCell>
        <mxCell id="7W5CvfdrQPlZcDnJv3r3-45" value="" style="endArrow=block;endSize=16;endFill=0;html=1;rounded=0;exitX=0;exitY=0.25;exitDx=0;exitDy=0;entryX=0.889;entryY=1.033;entryDx=0;entryDy=0;entryPerimeter=0;" parent="WIyWlLk6GJQsqaUBKTNV-1" source="7W5CvfdrQPlZcDnJv3r3-43" target="7W5CvfdrQPlZcDnJv3r3-39" edge="1">
          <mxGeometry width="160" relative="1" as="geometry">
            <mxPoint x="450" y="620" as="sourcePoint" />
            <mxPoint x="410" y="720" as="targetPoint" />
          </mxGeometry>
        </mxCell>
        <mxCell id="7W5CvfdrQPlZcDnJv3r3-50" value="&lt;p style=&quot;margin:0px;margin-top:4px;text-align:center;&quot;&gt;&lt;b&gt;{abstract}&lt;/b&gt;&lt;/p&gt;&lt;p style=&quot;margin:0px;margin-top:4px;text-align:center;&quot;&gt;&lt;b&gt;AbstractClassyAction&lt;/b&gt;&lt;/p&gt;&lt;hr size=&quot;1&quot;&gt;&lt;p style=&quot;margin:0px;margin-left:4px;&quot;&gt;+ loadIcon(String): Icon&lt;/p&gt;&lt;p style=&quot;margin:0px;margin-left:4px;&quot;&gt;+ generateMessage(Message): void&lt;/p&gt;" style="verticalAlign=top;align=left;overflow=fill;fontSize=12;fontFamily=Helvetica;html=1;whiteSpace=wrap;" parent="WIyWlLk6GJQsqaUBKTNV-1" vertex="1">
          <mxGeometry x="1351.25" y="115" width="200" height="90" as="geometry" />
        </mxCell>
        <mxCell id="7W5CvfdrQPlZcDnJv3r3-52" value="&lt;p style=&quot;margin:0px;margin-top:4px;text-align:center;&quot;&gt;&lt;b&gt;AboutUs&lt;/b&gt;&lt;/p&gt;&lt;hr size=&quot;1&quot;&gt;&lt;p style=&quot;margin:0px;margin-left:4px;&quot;&gt;+ actionPerformed (ActionEvent): void&lt;/p&gt;" style="verticalAlign=top;align=left;overflow=fill;fontSize=12;fontFamily=Helvetica;html=1;whiteSpace=wrap;" parent="WIyWlLk6GJQsqaUBKTNV-1" vertex="1">
          <mxGeometry x="1100" y="70" width="190" height="70" as="geometry" />
        </mxCell>
        <mxCell id="7W5CvfdrQPlZcDnJv3r3-53" value="" style="endArrow=block;endSize=16;endFill=0;html=1;rounded=0;exitX=1.017;exitY=0.614;exitDx=0;exitDy=0;exitPerimeter=0;entryX=-0.016;entryY=0.384;entryDx=0;entryDy=0;entryPerimeter=0;" parent="WIyWlLk6GJQsqaUBKTNV-1" target="7W5CvfdrQPlZcDnJv3r3-50" edge="1">
          <mxGeometry x="0.2493" y="-6" width="160" relative="1" as="geometry">
            <mxPoint x="1290" y="130.00000000000003" as="sourcePoint" />
            <mxPoint x="1376.77" y="237.02" as="targetPoint" />
            <mxPoint y="1" as="offset" />
          </mxGeometry>
        </mxCell>
        <mxCell id="7W5CvfdrQPlZcDnJv3r3-54" value="&lt;p style=&quot;margin:0px;margin-top:4px;text-align:center;&quot;&gt;&lt;b&gt;AddAuthorAction&lt;/b&gt;&lt;/p&gt;&lt;hr size=&quot;1&quot;&gt;&lt;p style=&quot;margin:0px;margin-left:4px;&quot;&gt;+ actionPerformed (ActionEvent): void&lt;/p&gt;" style="verticalAlign=top;align=left;overflow=fill;fontSize=12;fontFamily=Helvetica;html=1;whiteSpace=wrap;" parent="WIyWlLk6GJQsqaUBKTNV-1" vertex="1">
          <mxGeometry x="1115" y="180" width="185" height="60" as="geometry" />
        </mxCell>
        <mxCell id="7W5CvfdrQPlZcDnJv3r3-55" value="" style="endArrow=block;endSize=16;endFill=0;html=1;rounded=0;entryX=-0.008;entryY=0.891;entryDx=0;entryDy=0;entryPerimeter=0;exitX=0.699;exitY=-0.05;exitDx=0;exitDy=0;exitPerimeter=0;" parent="WIyWlLk6GJQsqaUBKTNV-1" source="7W5CvfdrQPlZcDnJv3r3-54" target="7W5CvfdrQPlZcDnJv3r3-50" edge="1">
          <mxGeometry x="-0.0049" width="160" relative="1" as="geometry">
            <mxPoint x="1220" y="220" as="sourcePoint" />
            <mxPoint x="1380" y="220" as="targetPoint" />
            <mxPoint as="offset" />
          </mxGeometry>
        </mxCell>
        <mxCell id="7W5CvfdrQPlZcDnJv3r3-56" value="&lt;p style=&quot;margin:0px;margin-top:4px;text-align:center;&quot;&gt;&lt;b&gt;AddNodeAction&lt;/b&gt;&lt;/p&gt;&lt;hr size=&quot;1&quot;&gt;&lt;p style=&quot;margin:0px;margin-left:4px;&quot;&gt;+ actionPerformed (ActionEvent): void&lt;/p&gt;" style="verticalAlign=top;align=left;overflow=fill;fontSize=12;fontFamily=Helvetica;html=1;whiteSpace=wrap;" parent="WIyWlLk6GJQsqaUBKTNV-1" vertex="1">
          <mxGeometry x="1170" y="260" width="185" height="60" as="geometry" />
        </mxCell>
        <mxCell id="7W5CvfdrQPlZcDnJv3r3-57" value="&lt;p style=&quot;margin:0px;margin-top:4px;text-align:center;&quot;&gt;&lt;b&gt;DeleteNodeAction&lt;/b&gt;&lt;/p&gt;&lt;hr size=&quot;1&quot;&gt;&lt;p style=&quot;margin:0px;margin-left:4px;&quot;&gt;+ actionPerformed (ActionEvent): void&lt;/p&gt;" style="verticalAlign=top;align=left;overflow=fill;fontSize=12;fontFamily=Helvetica;html=1;whiteSpace=wrap;" parent="WIyWlLk6GJQsqaUBKTNV-1" vertex="1">
          <mxGeometry x="1366.25" y="254" width="185" height="60" as="geometry" />
        </mxCell>
        <mxCell id="7W5CvfdrQPlZcDnJv3r3-58" value="" style="endArrow=block;endSize=16;endFill=0;html=1;rounded=0;exitX=0.75;exitY=0;exitDx=0;exitDy=0;entryX=0.052;entryY=1.06;entryDx=0;entryDy=0;entryPerimeter=0;" parent="WIyWlLk6GJQsqaUBKTNV-1" source="7W5CvfdrQPlZcDnJv3r3-56" target="7W5CvfdrQPlZcDnJv3r3-50" edge="1">
          <mxGeometry width="160" relative="1" as="geometry">
            <mxPoint x="1220" y="220" as="sourcePoint" />
            <mxPoint x="1380" y="220" as="targetPoint" />
          </mxGeometry>
        </mxCell>
        <mxCell id="7W5CvfdrQPlZcDnJv3r3-59" value="" style="endArrow=block;endSize=16;endFill=0;html=1;rounded=0;entryX=0.692;entryY=1.024;entryDx=0;entryDy=0;entryPerimeter=0;exitX=0.204;exitY=-0.023;exitDx=0;exitDy=0;exitPerimeter=0;" parent="WIyWlLk6GJQsqaUBKTNV-1" source="7W5CvfdrQPlZcDnJv3r3-57" target="7W5CvfdrQPlZcDnJv3r3-50" edge="1">
          <mxGeometry width="160" relative="1" as="geometry">
            <mxPoint x="1220" y="220" as="sourcePoint" />
            <mxPoint x="1380" y="220" as="targetPoint" />
          </mxGeometry>
        </mxCell>
        <mxCell id="7W5CvfdrQPlZcDnJv3r3-60" value="&lt;p style=&quot;margin:0px;margin-top:4px;text-align:center;&quot;&gt;&lt;b&gt;ExitAction&lt;/b&gt;&lt;/p&gt;&lt;hr size=&quot;1&quot;&gt;&lt;p style=&quot;margin:0px;margin-left:4px;&quot;&gt;+ actionPerformed (ActionEvent): void&lt;/p&gt;" style="verticalAlign=top;align=left;overflow=fill;fontSize=12;fontFamily=Helvetica;html=1;whiteSpace=wrap;" parent="WIyWlLk6GJQsqaUBKTNV-1" vertex="1">
          <mxGeometry x="1670" y="10" width="185" height="60" as="geometry" />
        </mxCell>
        <mxCell id="7W5CvfdrQPlZcDnJv3r3-61" value="&lt;p style=&quot;margin:0px;margin-top:4px;text-align:center;&quot;&gt;&lt;b&gt;PackagePackageAction&lt;/b&gt;&lt;/p&gt;&lt;hr size=&quot;1&quot;&gt;&lt;p style=&quot;margin:0px;margin-left:4px;&quot;&gt;+ actionPerformed (ActionEvent): void&lt;/p&gt;" style="verticalAlign=top;align=left;overflow=fill;fontSize=12;fontFamily=Helvetica;html=1;whiteSpace=wrap;" parent="WIyWlLk6GJQsqaUBKTNV-1" vertex="1">
          <mxGeometry x="1640" y="110" width="185" height="60" as="geometry" />
        </mxCell>
        <mxCell id="7W5CvfdrQPlZcDnJv3r3-62" value="&lt;p style=&quot;margin:0px;margin-top:4px;text-align:center;&quot;&gt;&lt;b&gt;RenameAction&lt;/b&gt;&lt;/p&gt;&lt;hr size=&quot;1&quot;&gt;&lt;p style=&quot;margin:0px;margin-left:4px;&quot;&gt;+ actionPerformed (ActionEvent): void&lt;/p&gt;" style="verticalAlign=top;align=left;overflow=fill;fontSize=12;fontFamily=Helvetica;html=1;whiteSpace=wrap;" parent="WIyWlLk6GJQsqaUBKTNV-1" vertex="1">
          <mxGeometry x="1590" y="230" width="185" height="60" as="geometry" />
        </mxCell>
        <mxCell id="7W5CvfdrQPlZcDnJv3r3-63" value="" style="endArrow=block;endSize=16;endFill=0;html=1;rounded=0;exitX=-0.028;exitY=0.397;exitDx=0;exitDy=0;exitPerimeter=0;entryX=1;entryY=0.5;entryDx=0;entryDy=0;" parent="WIyWlLk6GJQsqaUBKTNV-1" source="7W5CvfdrQPlZcDnJv3r3-60" target="7W5CvfdrQPlZcDnJv3r3-50" edge="1">
          <mxGeometry x="-0.0454" y="24" width="160" relative="1" as="geometry">
            <mxPoint x="1560" y="220" as="sourcePoint" />
            <mxPoint x="1580" y="110" as="targetPoint" />
            <mxPoint as="offset" />
          </mxGeometry>
        </mxCell>
        <mxCell id="7W5CvfdrQPlZcDnJv3r3-65" value="" style="endArrow=block;endSize=16;endFill=0;html=1;rounded=0;exitX=0;exitY=0.5;exitDx=0;exitDy=0;" parent="WIyWlLk6GJQsqaUBKTNV-1" source="7W5CvfdrQPlZcDnJv3r3-61" target="7W5CvfdrQPlZcDnJv3r3-50" edge="1">
          <mxGeometry x="-0.1205" y="2" width="160" relative="1" as="geometry">
            <mxPoint x="1630" y="140" as="sourcePoint" />
            <mxPoint x="1720" y="220" as="targetPoint" />
            <mxPoint y="-1" as="offset" />
          </mxGeometry>
        </mxCell>
        <mxCell id="7W5CvfdrQPlZcDnJv3r3-66" value="" style="endArrow=block;endSize=16;endFill=0;html=1;rounded=0;entryX=0.956;entryY=1.024;entryDx=0;entryDy=0;entryPerimeter=0;" parent="WIyWlLk6GJQsqaUBKTNV-1" target="7W5CvfdrQPlZcDnJv3r3-50" edge="1">
          <mxGeometry x="-0.0851" y="-7" width="160" relative="1" as="geometry">
            <mxPoint x="1640" y="230" as="sourcePoint" />
            <mxPoint x="1720" y="220" as="targetPoint" />
            <mxPoint x="1" as="offset" />
          </mxGeometry>
        </mxCell>
        <mxCell id="7W5CvfdrQPlZcDnJv3r3-67" value="&lt;p style=&quot;margin:0px;margin-top:4px;text-align:center;&quot;&gt;&lt;b&gt;ActionManager&lt;/b&gt;&lt;/p&gt;&lt;hr size=&quot;1&quot;&gt;&lt;p style=&quot;margin:0px;margin-left:4px;&quot;&gt;- aboutUs: AboutUs&lt;/p&gt;&lt;p style=&quot;margin:0px;margin-left:4px;&quot;&gt;- addAuthorAction: AddAuthorAction&lt;/p&gt;&lt;p style=&quot;margin:0px;margin-left:4px;&quot;&gt;-addNode: AddNodeAction&lt;/p&gt;&lt;p style=&quot;margin:0px;margin-left:4px;&quot;&gt;-removeNode: DeleteNodeAction&lt;/p&gt;&lt;p style=&quot;margin:0px;margin-left:4px;&quot;&gt;-renameAction: RenameAction&lt;/p&gt;&lt;p style=&quot;margin:0px;margin-left:4px;&quot;&gt;-exitAction: ExitAction&lt;/p&gt;&lt;p style=&quot;margin:0px;margin-left:4px;&quot;&gt;-packagePackageAction: PackagePackageAction&lt;/p&gt;" style="verticalAlign=top;align=left;overflow=fill;fontSize=12;fontFamily=Helvetica;html=1;whiteSpace=wrap;" parent="WIyWlLk6GJQsqaUBKTNV-1" vertex="1">
          <mxGeometry x="930" y="214" width="160" height="196" as="geometry" />
        </mxCell>
        <mxCell id="7W5CvfdrQPlZcDnJv3r3-68" value="&lt;p style=&quot;margin:0px;margin-top:4px;text-align:center;&quot;&gt;&lt;b&gt;Gui&lt;/b&gt;&lt;/p&gt;&lt;hr size=&quot;1&quot;&gt;&lt;p style=&quot;margin:0px;margin-left:4px;&quot;&gt;+ start(): void&lt;/p&gt;" style="verticalAlign=top;align=left;overflow=fill;fontSize=12;fontFamily=Helvetica;html=1;whiteSpace=wrap;" parent="WIyWlLk6GJQsqaUBKTNV-1" vertex="1">
          <mxGeometry x="970" y="510" width="160" height="60" as="geometry" />
        </mxCell>
        <mxCell id="7W5CvfdrQPlZcDnJv3r3-69" value="&lt;p style=&quot;margin:0px;margin-top:4px;text-align:center;&quot;&gt;&lt;b&gt;ApplicationFramework&lt;/b&gt;&lt;/p&gt;&lt;hr size=&quot;1&quot;&gt;&lt;p style=&quot;margin:0px;margin-left:4px;&quot;&gt;# gui: Gui&lt;/p&gt;&lt;p style=&quot;margin:0px;margin-left:4px;&quot;&gt;# classyRepository: ClassyRepository&lt;/p&gt;&lt;p style=&quot;margin:0px;margin-left:4px;&quot;&gt;# messageGenerator: MessageGeneratorImplementation&lt;/p&gt;&lt;p style=&quot;margin:0px;margin-left:4px;&quot;&gt;&lt;u&gt;- instance: ApplicationFramework&lt;/u&gt;&lt;/p&gt;&lt;hr size=&quot;1&quot;&gt;&lt;p style=&quot;margin:0px;margin-left:4px;&quot;&gt;- ApplicationFrameeork()&lt;/p&gt;&lt;p style=&quot;margin:0px;margin-left:4px;&quot;&gt;+ run(): void&lt;/p&gt;&lt;p style=&quot;margin:0px;margin-left:4px;&quot;&gt;+ initialise(Gui, ClassyRepository): void&lt;/p&gt;&lt;p style=&quot;margin:0px;margin-left:4px;&quot;&gt;+ &lt;u&gt;getInstance(): ApplicationFramework&lt;/u&gt;&lt;/p&gt;&lt;p style=&quot;margin:0px;margin-left:4px;&quot;&gt;+getClassyRepository(): ClassyRepository&lt;/p&gt;&lt;p style=&quot;margin:0px;margin-left:4px;&quot;&gt;+getMessageGenerator(): MessageGenerator&lt;/p&gt;&lt;p style=&quot;margin:0px;margin-left:4px;&quot;&gt;&lt;br&gt;&lt;/p&gt;" style="verticalAlign=top;align=left;overflow=fill;fontSize=12;fontFamily=Helvetica;html=1;whiteSpace=wrap;" parent="WIyWlLk6GJQsqaUBKTNV-1" vertex="1">
          <mxGeometry x="830" y="590" width="220" height="230" as="geometry" />
        </mxCell>
        <mxCell id="7W5CvfdrQPlZcDnJv3r3-70" value="&lt;p style=&quot;margin:0px;margin-top:4px;text-align:center;&quot;&gt;&lt;i&gt;&amp;lt;&amp;lt;Interface&amp;gt;&amp;gt;&lt;/i&gt;&lt;br&gt;&lt;b&gt;Logger&lt;/b&gt;&lt;/p&gt;&lt;hr size=&quot;1&quot;&gt;&lt;p style=&quot;margin:0px;margin-left:4px;&quot;&gt;+ update(Object): void&lt;br&gt;&lt;/p&gt;" style="verticalAlign=top;align=left;overflow=fill;fontSize=12;fontFamily=Helvetica;html=1;whiteSpace=wrap;" parent="WIyWlLk6GJQsqaUBKTNV-1" vertex="1">
          <mxGeometry x="1200" y="365" width="190" height="70" as="geometry" />
        </mxCell>
        <mxCell id="7W5CvfdrQPlZcDnJv3r3-71" value="" style="endArrow=block;dashed=1;endFill=0;endSize=12;html=1;rounded=0;exitX=0.924;exitY=0.983;exitDx=0;exitDy=0;exitPerimeter=0;entryX=-0.008;entryY=0.412;entryDx=0;entryDy=0;entryPerimeter=0;" parent="WIyWlLk6GJQsqaUBKTNV-1" source="7W5CvfdrQPlZcDnJv3r3-70" target="7W5CvfdrQPlZcDnJv3r3-11" edge="1">
          <mxGeometry width="160" relative="1" as="geometry">
            <mxPoint x="1330" y="420" as="sourcePoint" />
            <mxPoint x="1490" y="420" as="targetPoint" />
          </mxGeometry>
        </mxCell>
        <mxCell id="7W5CvfdrQPlZcDnJv3r3-72" value="&lt;p style=&quot;margin:0px;margin-top:4px;text-align:center;&quot;&gt;&lt;b&gt;ConsoleLogger&lt;/b&gt;&lt;/p&gt;&lt;hr size=&quot;1&quot;&gt;&lt;p style=&quot;margin:0px;margin-left:4px;&quot;&gt;&lt;span style=&quot;background-color: initial;&quot;&gt;+ update(Object): void&lt;/span&gt;&lt;/p&gt;" style="verticalAlign=top;align=left;overflow=fill;fontSize=12;fontFamily=Helvetica;html=1;whiteSpace=wrap;" parent="WIyWlLk6GJQsqaUBKTNV-1" vertex="1">
          <mxGeometry x="1520" y="432.5" width="160" height="50" as="geometry" />
        </mxCell>
        <mxCell id="7W5CvfdrQPlZcDnJv3r3-73" value="&lt;p style=&quot;margin:0px;margin-top:4px;text-align:center;&quot;&gt;&lt;b&gt;FileLogger&lt;/b&gt;&lt;/p&gt;&lt;hr size=&quot;1&quot;&gt;&lt;p style=&quot;margin:0px;margin-left:4px;&quot;&gt;&lt;span style=&quot;background-color: initial;&quot;&gt;+ update(Object): void&lt;/span&gt;&lt;/p&gt;" style="verticalAlign=top;align=left;overflow=fill;fontSize=12;fontFamily=Helvetica;html=1;whiteSpace=wrap;" parent="WIyWlLk6GJQsqaUBKTNV-1" vertex="1">
          <mxGeometry x="1520" y="360" width="160" height="50" as="geometry" />
        </mxCell>
        <mxCell id="7W5CvfdrQPlZcDnJv3r3-74" value="" style="endArrow=block;dashed=1;endFill=0;endSize=12;html=1;rounded=0;exitX=0;exitY=0.5;exitDx=0;exitDy=0;entryX=1.034;entryY=0.891;entryDx=0;entryDy=0;entryPerimeter=0;" parent="WIyWlLk6GJQsqaUBKTNV-1" source="7W5CvfdrQPlZcDnJv3r3-72" target="7W5CvfdrQPlZcDnJv3r3-70" edge="1">
          <mxGeometry width="160" relative="1" as="geometry">
            <mxPoint x="1200" y="520" as="sourcePoint" />
            <mxPoint x="1360" y="520" as="targetPoint" />
          </mxGeometry>
        </mxCell>
        <mxCell id="7W5CvfdrQPlZcDnJv3r3-75" value="" style="endArrow=block;dashed=1;endFill=0;endSize=12;html=1;rounded=0;exitX=0;exitY=0.5;exitDx=0;exitDy=0;" parent="WIyWlLk6GJQsqaUBKTNV-1" source="7W5CvfdrQPlZcDnJv3r3-73" target="7W5CvfdrQPlZcDnJv3r3-70" edge="1">
          <mxGeometry width="160" relative="1" as="geometry">
            <mxPoint x="1200" y="520" as="sourcePoint" />
            <mxPoint x="1360" y="520" as="targetPoint" />
          </mxGeometry>
        </mxCell>
        <mxCell id="7W5CvfdrQPlZcDnJv3r3-76" value="&lt;p style=&quot;margin:0px;margin-top:4px;text-align:center;&quot;&gt;&lt;b&gt;LoggerFactory&lt;/b&gt;&lt;/p&gt;&lt;hr size=&quot;1&quot;&gt;&lt;p style=&quot;margin:0px;margin-left:4px;&quot;&gt;&lt;/p&gt;&lt;p style=&quot;margin:0px;margin-left:4px;&quot;&gt;+ createLogger(String): Logger&lt;/p&gt;" style="verticalAlign=top;align=left;overflow=fill;fontSize=12;fontFamily=Helvetica;html=1;whiteSpace=wrap;" parent="WIyWlLk6GJQsqaUBKTNV-1" vertex="1">
          <mxGeometry x="1200" y="460" width="172.5" height="60" as="geometry" />
        </mxCell>
        <mxCell id="7W5CvfdrQPlZcDnJv3r3-77" value="&lt;p style=&quot;margin:0px;margin-top:4px;text-align:center;&quot;&gt;&lt;i&gt;&amp;lt;&amp;lt;Interface&amp;gt;&amp;gt;&lt;/i&gt;&lt;br&gt;&lt;b&gt;MessageGenerator&lt;/b&gt;&lt;/p&gt;&lt;hr size=&quot;1&quot;&gt;&lt;p style=&quot;margin:0px;margin-left:4px;&quot;&gt;# createMessage(PossibleErrors): void&lt;/p&gt;" style="verticalAlign=top;align=left;overflow=fill;fontSize=12;fontFamily=Helvetica;html=1;whiteSpace=wrap;" parent="WIyWlLk6GJQsqaUBKTNV-1" vertex="1">
          <mxGeometry x="35" y="200" width="190" height="80" as="geometry" />
        </mxCell>
        <mxCell id="7W5CvfdrQPlZcDnJv3r3-78" value="" style="endArrow=block;dashed=1;endFill=0;endSize=12;html=1;rounded=0;entryX=0.818;entryY=1.025;entryDx=0;entryDy=0;entryPerimeter=0;exitX=0.295;exitY=0.003;exitDx=0;exitDy=0;exitPerimeter=0;" parent="WIyWlLk6GJQsqaUBKTNV-1" source="7W5CvfdrQPlZcDnJv3r3-77" target="7W5CvfdrQPlZcDnJv3r3-10" edge="1">
          <mxGeometry width="160" relative="1" as="geometry">
            <mxPoint x="-10" y="220" as="sourcePoint" />
            <mxPoint x="150" y="220" as="targetPoint" />
          </mxGeometry>
        </mxCell>
        <mxCell id="7W5CvfdrQPlZcDnJv3r3-79" value="&lt;p style=&quot;margin:0px;margin-top:4px;text-align:center;&quot;&gt;&lt;b&gt;MessageGeneratorImplementation&lt;/b&gt;&lt;/p&gt;&lt;hr size=&quot;1&quot;&gt;&lt;p style=&quot;margin:0px;margin-left:4px;&quot;&gt;&lt;span style=&quot;background-color: initial;&quot;&gt;+ createMessage(PossibleErrors): void&lt;/span&gt;&lt;/p&gt;" style="verticalAlign=top;align=left;overflow=fill;fontSize=12;fontFamily=Helvetica;html=1;whiteSpace=wrap;" parent="WIyWlLk6GJQsqaUBKTNV-1" vertex="1">
          <mxGeometry x="180" y="307" width="210" height="70" as="geometry" />
        </mxCell>
        <mxCell id="7W5CvfdrQPlZcDnJv3r3-80" value="" style="endArrow=block;endSize=16;endFill=0;html=1;rounded=0;entryX=0.276;entryY=1.095;entryDx=0;entryDy=0;entryPerimeter=0;exitX=0.756;exitY=-0.086;exitDx=0;exitDy=0;exitPerimeter=0;" parent="WIyWlLk6GJQsqaUBKTNV-1" source="7W5CvfdrQPlZcDnJv3r3-79" target="7W5CvfdrQPlZcDnJv3r3-3" edge="1">
          <mxGeometry width="160" relative="1" as="geometry">
            <mxPoint x="340" y="300" as="sourcePoint" />
            <mxPoint x="140" y="320" as="targetPoint" />
          </mxGeometry>
        </mxCell>
        <mxCell id="7W5CvfdrQPlZcDnJv3r3-81" value="" style="endArrow=block;dashed=1;endFill=0;endSize=12;html=1;rounded=0;entryX=0.425;entryY=1.052;entryDx=0;entryDy=0;entryPerimeter=0;exitX=-0.016;exitY=0.383;exitDx=0;exitDy=0;exitPerimeter=0;" parent="WIyWlLk6GJQsqaUBKTNV-1" source="7W5CvfdrQPlZcDnJv3r3-79" target="7W5CvfdrQPlZcDnJv3r3-77" edge="1">
          <mxGeometry width="160" relative="1" as="geometry">
            <mxPoint x="-20" y="320" as="sourcePoint" />
            <mxPoint x="140" y="320" as="targetPoint" />
          </mxGeometry>
        </mxCell>
        <mxCell id="7W5CvfdrQPlZcDnJv3r3-82" value="&lt;p style=&quot;margin:0px;margin-top:4px;text-align:center;&quot;&gt;&lt;b&gt;Message&lt;/b&gt;&lt;/p&gt;&lt;hr size=&quot;1&quot;&gt;&lt;p style=&quot;margin:0px;margin-left:4px;&quot;&gt;- text: String&lt;/p&gt;&lt;p style=&quot;margin:0px;margin-left:4px;&quot;&gt;- type: String&lt;/p&gt;&lt;p style=&quot;margin:0px;margin-left:4px;&quot;&gt;- timeStamp: TimeStamp&lt;/p&gt;&lt;p style=&quot;margin:0px;margin-left:4px;&quot;&gt;- sdf: SimpleDateFormat&lt;/p&gt;&lt;hr size=&quot;1&quot;&gt;&lt;p style=&quot;margin:0px;margin-left:4px;&quot;&gt;+ toString(): String&lt;/p&gt;" style="verticalAlign=top;align=left;overflow=fill;fontSize=12;fontFamily=Helvetica;html=1;whiteSpace=wrap;" parent="WIyWlLk6GJQsqaUBKTNV-1" vertex="1">
          <mxGeometry x="20" y="395" width="160" height="125" as="geometry" />
        </mxCell>
        <mxCell id="7W5CvfdrQPlZcDnJv3r3-83" value="«enum»&lt;br&gt;&lt;b&gt;PossibleErrors&lt;/b&gt;" style="html=1;whiteSpace=wrap;" parent="WIyWlLk6GJQsqaUBKTNV-1" vertex="1">
          <mxGeometry x="210" y="495" width="110" height="50" as="geometry" />
        </mxCell>
        <mxCell id="7W5CvfdrQPlZcDnJv3r3-84" value="&lt;p style=&quot;margin:0px;margin-top:4px;text-align:center;&quot;&gt;&lt;b&gt;ClassyTreeCellEditor&lt;/b&gt;&lt;/p&gt;&lt;hr size=&quot;1&quot;&gt;&lt;p style=&quot;margin:0px;margin-left:4px;&quot;&gt;- clickedOn: Object = null&lt;/p&gt;&lt;p style=&quot;margin:0px;margin-left:4px;&quot;&gt;- edit: JField = null&lt;/p&gt;&lt;hr size=&quot;1&quot;&gt;&lt;p style=&quot;margin:0px;margin-left:4px;&quot;&gt;+&amp;nbsp;getTreeCellEditorComponent (JTree, Object, bool, bool, bool, int&lt;span style=&quot;background-color: initial;&quot;&gt;): Component&lt;/span&gt;&lt;/p&gt;&lt;p style=&quot;margin:0px;margin-left:4px;&quot;&gt;&lt;span style=&quot;background-color: initial;&quot;&gt;+ isCellEditable (EventObject): bool&lt;/span&gt;&lt;/p&gt;&lt;p style=&quot;margin:0px;margin-left:4px;&quot;&gt;&lt;span style=&quot;background-color: initial;&quot;&gt;+ actionPerformed(ActionEvent): void&lt;/span&gt;&lt;/p&gt;" style="verticalAlign=top;align=left;overflow=fill;fontSize=12;fontFamily=Helvetica;html=1;whiteSpace=wrap;" parent="WIyWlLk6GJQsqaUBKTNV-1" vertex="1">
          <mxGeometry x="1990" y="320" width="260" height="140" as="geometry" />
        </mxCell>
        <mxCell id="7W5CvfdrQPlZcDnJv3r3-85" value="&lt;p style=&quot;margin:0px;margin-top:4px;text-align:center;&quot;&gt;&lt;b&gt;ClassyTreeSelectionListener&lt;/b&gt;&lt;/p&gt;&lt;hr size=&quot;1&quot;&gt;&lt;p style=&quot;margin:0px;margin-left:4px;&quot;&gt;&lt;span style=&quot;background-color: initial;&quot;&gt;+ valueChanged(TreeSelectionEvent): void&lt;/span&gt;&lt;/p&gt;" style="verticalAlign=top;align=left;overflow=fill;fontSize=12;fontFamily=Helvetica;html=1;whiteSpace=wrap;" parent="WIyWlLk6GJQsqaUBKTNV-1" vertex="1">
          <mxGeometry x="1960" y="485" width="210" height="70" as="geometry" />
        </mxCell>
        <mxCell id="7W5CvfdrQPlZcDnJv3r3-86" value="&lt;p style=&quot;margin:0px;margin-top:4px;text-align:center;&quot;&gt;&lt;b&gt;MouseControl&lt;/b&gt;&lt;/p&gt;&lt;hr size=&quot;1&quot;&gt;&lt;p style=&quot;margin:0px;margin-left:4px;&quot;&gt;- tree: JTree&lt;/p&gt;&lt;hr size=&quot;1&quot;&gt;&lt;p style=&quot;margin:0px;margin-left:4px;&quot;&gt;+ mouseClicked(MouseEvent): void&lt;/p&gt;&lt;p style=&quot;border-color: var(--border-color); margin: 0px 0px 0px 4px;&quot;&gt;+ mousePressed(MouseEvent): void&lt;/p&gt;&lt;p style=&quot;border-color: var(--border-color); margin: 0px 0px 0px 4px;&quot;&gt;+ mouseReleased(MouseEvent): void&lt;/p&gt;&lt;p style=&quot;border-color: var(--border-color); margin: 0px 0px 0px 4px;&quot;&gt;+ mouseEntered(MouseEvent): void&lt;/p&gt;&lt;p style=&quot;border-color: var(--border-color); margin: 0px 0px 0px 4px;&quot;&gt;+ mouseExited(MouseEvent): void&lt;/p&gt;&lt;p style=&quot;border-color: var(--border-color); margin: 0px 0px 0px 4px;&quot;&gt;&lt;br style=&quot;border-color: var(--border-color);&quot;&gt;&lt;/p&gt;&lt;p style=&quot;border-color: var(--border-color); margin: 0px 0px 0px 4px;&quot;&gt;&lt;br style=&quot;border-color: var(--border-color);&quot;&gt;&lt;/p&gt;&lt;p style=&quot;border-color: var(--border-color); margin: 0px 0px 0px 4px;&quot;&gt;&lt;br style=&quot;border-color: var(--border-color);&quot;&gt;&lt;/p&gt;&lt;p style=&quot;border-color: var(--border-color); margin: 0px 0px 0px 4px;&quot;&gt;&lt;br style=&quot;border-color: var(--border-color);&quot;&gt;&lt;/p&gt;&lt;p style=&quot;margin:0px;margin-left:4px;&quot;&gt;&lt;br&gt;&lt;/p&gt;" style="verticalAlign=top;align=left;overflow=fill;fontSize=12;fontFamily=Helvetica;html=1;whiteSpace=wrap;" parent="WIyWlLk6GJQsqaUBKTNV-1" vertex="1">
          <mxGeometry x="1990" y="600" width="225" height="140" as="geometry" />
        </mxCell>
        <mxCell id="7W5CvfdrQPlZcDnJv3r3-87" value="&lt;p style=&quot;margin:0px;margin-top:4px;text-align:center;&quot;&gt;&lt;b&gt;ClassyTreeItem&lt;/b&gt;&lt;/p&gt;&lt;hr size=&quot;1&quot;&gt;&lt;p style=&quot;margin:0px;margin-left:4px;&quot;&gt;- classyNode: ClassyNode&lt;/p&gt;&lt;p style=&quot;margin:0px;margin-left:4px;&quot;&gt;- children: ClassyTreeItem [*]&lt;/p&gt;&lt;hr size=&quot;1&quot;&gt;&lt;p style=&quot;margin:0px;margin-left:4px;&quot;&gt;+ toString(): String&lt;/p&gt;" style="verticalAlign=top;align=left;overflow=fill;fontSize=12;fontFamily=Helvetica;html=1;whiteSpace=wrap;" parent="WIyWlLk6GJQsqaUBKTNV-1" vertex="1">
          <mxGeometry x="1755" y="360" width="170" height="90" as="geometry" />
        </mxCell>
        <mxCell id="7W5CvfdrQPlZcDnJv3r3-88" value="&lt;p style=&quot;margin:0px;margin-top:4px;text-align:center;&quot;&gt;&lt;b&gt;ClassyTreeCellRenderer&lt;/b&gt;&lt;/p&gt;&lt;hr size=&quot;1&quot;&gt;&lt;p style=&quot;margin:0px;margin-left:4px;&quot;&gt;+ getTreeCellRendererComponent (JTree, Object, bool, bool, bool, int bool): Component&lt;/p&gt;" style="verticalAlign=top;align=left;overflow=fill;fontSize=12;fontFamily=Helvetica;html=1;whiteSpace=wrap;" parent="WIyWlLk6GJQsqaUBKTNV-1" vertex="1">
          <mxGeometry x="1770" y="650" width="200" height="80" as="geometry" />
        </mxCell>
        <mxCell id="7W5CvfdrQPlZcDnJv3r3-89" value="&lt;p style=&quot;margin:0px;margin-top:4px;text-align:center;&quot;&gt;&lt;b&gt;ClassyTreeView&lt;/b&gt;&lt;/p&gt;&lt;hr size=&quot;1&quot;&gt;&lt;p style=&quot;margin:0px;margin-left:4px;&quot;&gt;- ourEditor: ClassyTreeCellEditor&lt;/p&gt;&lt;hr size=&quot;1&quot;&gt;&lt;p style=&quot;margin:0px;margin-left:4px;&quot;&gt;+ update(Object): void&lt;/p&gt;" style="verticalAlign=top;align=left;overflow=fill;fontSize=12;fontFamily=Helvetica;html=1;whiteSpace=wrap;" parent="WIyWlLk6GJQsqaUBKTNV-1" vertex="1">
          <mxGeometry x="1755" y="465" width="180" height="80" as="geometry" />
        </mxCell>
        <mxCell id="7W5CvfdrQPlZcDnJv3r3-90" value="" style="endArrow=block;dashed=1;endFill=0;endSize=12;html=1;rounded=0;entryX=1;entryY=0.5;entryDx=0;entryDy=0;exitX=0;exitY=0.5;exitDx=0;exitDy=0;" parent="WIyWlLk6GJQsqaUBKTNV-1" source="7W5CvfdrQPlZcDnJv3r3-89" target="7W5CvfdrQPlZcDnJv3r3-11" edge="1">
          <mxGeometry width="160" relative="1" as="geometry">
            <mxPoint x="1710" y="630" as="sourcePoint" />
            <mxPoint x="1870" y="630" as="targetPoint" />
          </mxGeometry>
        </mxCell>
        <mxCell id="7W5CvfdrQPlZcDnJv3r3-92" value="&lt;p style=&quot;margin:0px;margin-top:4px;text-align:center;&quot;&gt;&lt;i&gt;&amp;lt;&amp;lt;Interface&amp;gt;&amp;gt;&lt;/i&gt;&lt;br&gt;&lt;b&gt;ClassyTree&lt;/b&gt;&lt;/p&gt;&lt;hr size=&quot;1&quot;&gt;&lt;p style=&quot;margin:0px;margin-left:4px;&quot;&gt;# generateTree (ProjectExplorer): ClassyTreeView&lt;br&gt;# addChild(ClassyTreeItem): void&lt;/p&gt;&lt;p style=&quot;margin:0px;margin-left:4px;&quot;&gt;# getSelectedNode(): ClassyTreeItem&lt;/p&gt;&lt;p style=&quot;margin:0px;margin-left:4px;&quot;&gt;# deleteChild(ClassyTreeItem): void&lt;/p&gt;&lt;p style=&quot;margin:0px;margin-left:4px;&quot;&gt;# update(): void&lt;/p&gt;&lt;p style=&quot;margin:0px;margin-left:4px;&quot;&gt;# addPP(ClassyTreeItem): void&lt;/p&gt;&lt;p style=&quot;margin:0px;margin-left:4px;&quot;&gt;&lt;br&gt;&lt;/p&gt;" style="verticalAlign=top;align=left;overflow=fill;fontSize=12;fontFamily=Helvetica;html=1;whiteSpace=wrap;" parent="WIyWlLk6GJQsqaUBKTNV-1" vertex="1">
          <mxGeometry x="2050" y="775" width="205" height="155" as="geometry" />
        </mxCell>
        <mxCell id="7W5CvfdrQPlZcDnJv3r3-93" value="&lt;p style=&quot;margin:0px;margin-top:4px;text-align:center;&quot;&gt;&lt;b&gt;ClassyTreeImplementation&lt;/b&gt;&lt;/p&gt;&lt;hr size=&quot;1&quot;&gt;&lt;p style=&quot;margin:0px;margin-left:4px;&quot;&gt;- treeView: ClassyTreeView&lt;/p&gt;&lt;p style=&quot;margin:0px;margin-left:4px;&quot;&gt;- treeModel: DefaultTreeModel&lt;/p&gt;&lt;hr size=&quot;1&quot;&gt;&lt;p style=&quot;border-color: var(--border-color); margin: 0px 0px 0px 4px;&quot;&gt;+ generateTree (ProjectExplorer): ClassyTreeView&lt;br style=&quot;border-color: var(--border-color);&quot;&gt;+ addChild(ClassyTreeItem): void&lt;/p&gt;&lt;p style=&quot;border-color: var(--border-color); margin: 0px 0px 0px 4px;&quot;&gt;+ getSelectedNode(): ClassyTreeItem&lt;/p&gt;&lt;p style=&quot;border-color: var(--border-color); margin: 0px 0px 0px 4px;&quot;&gt;+ deleteChild(ClassyTreeItem): void&lt;/p&gt;&lt;p style=&quot;border-color: var(--border-color); margin: 0px 0px 0px 4px;&quot;&gt;+ update(): void&lt;/p&gt;&lt;p style=&quot;border-color: var(--border-color); margin: 0px 0px 0px 4px;&quot;&gt;+ addPP(ClassyTreeItem): void&lt;/p&gt;&lt;p style=&quot;border-color: var(--border-color); margin: 0px 0px 0px 4px;&quot;&gt;&lt;br style=&quot;border-color: var(--border-color);&quot;&gt;&lt;/p&gt;" style="verticalAlign=top;align=left;overflow=fill;fontSize=12;fontFamily=Helvetica;html=1;whiteSpace=wrap;" parent="WIyWlLk6GJQsqaUBKTNV-1" vertex="1">
          <mxGeometry x="1820" y="770" width="170" height="250" as="geometry" />
        </mxCell>
        <mxCell id="7W5CvfdrQPlZcDnJv3r3-94" value="" style="endArrow=block;dashed=1;endFill=0;endSize=12;html=1;rounded=0;exitX=0;exitY=0.844;exitDx=0;exitDy=0;exitPerimeter=0;entryX=1.029;entryY=0.36;entryDx=0;entryDy=0;entryPerimeter=0;" parent="WIyWlLk6GJQsqaUBKTNV-1" source="7W5CvfdrQPlZcDnJv3r3-92" target="7W5CvfdrQPlZcDnJv3r3-93" edge="1">
          <mxGeometry width="160" relative="1" as="geometry">
            <mxPoint x="1620" y="710" as="sourcePoint" />
            <mxPoint x="1780" y="710" as="targetPoint" />
          </mxGeometry>
        </mxCell>
        <mxCell id="7W5CvfdrQPlZcDnJv3r3-95" value="&lt;p style=&quot;margin:0px;margin-top:4px;text-align:center;&quot;&gt;&lt;b&gt;&lt;u&gt;MainFrame&lt;/u&gt;&lt;/b&gt;&lt;/p&gt;&lt;hr size=&quot;1&quot;&gt;&lt;p style=&quot;margin:0px;margin-left:4px;&quot;&gt;&lt;u&gt;- instance: MainFrame&lt;/u&gt;&lt;/p&gt;&lt;p style=&quot;margin:0px;margin-left:4px;&quot;&gt;-&amp;nbsp;actionManager: ActionManager&lt;/p&gt;&lt;p style=&quot;margin:0px;margin-left:4px;&quot;&gt;- classyTree: ClassyTree&lt;/p&gt;&lt;p style=&quot;margin:0px;margin-left:4px;&quot;&gt;- workSpace: IWorkspace&lt;/p&gt;&lt;hr size=&quot;1&quot;&gt;&lt;p style=&quot;margin:0px;margin-left:4px;&quot;&gt;- initialise(): void&lt;/p&gt;&lt;p style=&quot;margin:0px;margin-left:4px;&quot;&gt;- initialiseGUI(): void&lt;/p&gt;&lt;p style=&quot;margin:0px;margin-left:4px;&quot;&gt;+&lt;u&gt; getInstance(): MainFrame&lt;/u&gt;&lt;/p&gt;&lt;p style=&quot;margin:0px;margin-left:4px;&quot;&gt;+ update(Object): void&lt;/p&gt;" style="verticalAlign=top;align=left;overflow=fill;fontSize=12;fontFamily=Helvetica;html=1;whiteSpace=wrap;" parent="WIyWlLk6GJQsqaUBKTNV-1" vertex="1">
          <mxGeometry x="1530" y="680" width="210" height="160" as="geometry" />
        </mxCell>
        <mxCell id="7W5CvfdrQPlZcDnJv3r3-96" value="" style="endArrow=block;dashed=1;endFill=0;endSize=12;html=1;rounded=0;exitX=0.597;exitY=0.02;exitDx=0;exitDy=0;exitPerimeter=0;" parent="WIyWlLk6GJQsqaUBKTNV-1" source="7W5CvfdrQPlZcDnJv3r3-95" target="7W5CvfdrQPlZcDnJv3r3-11" edge="1">
          <mxGeometry width="160" relative="1" as="geometry">
            <mxPoint x="1440" y="710" as="sourcePoint" />
            <mxPoint x="1550" y="620" as="targetPoint" />
          </mxGeometry>
        </mxCell>
        <mxCell id="7W5CvfdrQPlZcDnJv3r3-97" value="&lt;p style=&quot;margin:0px;margin-top:4px;text-align:center;&quot;&gt;&lt;b&gt;SwingGui&lt;/b&gt;&lt;/p&gt;&lt;hr size=&quot;1&quot;&gt;&lt;p style=&quot;margin:0px;margin-left:4px;&quot;&gt;- instance: MainFrame&lt;/p&gt;&lt;hr size=&quot;1&quot;&gt;&lt;p style=&quot;margin:0px;margin-left:4px;&quot;&gt;+ start(): void&lt;/p&gt;" style="verticalAlign=top;align=left;overflow=fill;fontSize=12;fontFamily=Helvetica;html=1;whiteSpace=wrap;" parent="WIyWlLk6GJQsqaUBKTNV-1" vertex="1">
          <mxGeometry x="1206.25" y="600" width="160" height="80" as="geometry" />
        </mxCell>
        <mxCell id="7W5CvfdrQPlZcDnJv3r3-98" value="" style="endArrow=block;dashed=1;endFill=0;endSize=12;html=1;rounded=0;entryX=1;entryY=0.75;entryDx=0;entryDy=0;" parent="WIyWlLk6GJQsqaUBKTNV-1" target="7W5CvfdrQPlZcDnJv3r3-68" edge="1">
          <mxGeometry width="160" relative="1" as="geometry">
            <mxPoint x="1200" y="620" as="sourcePoint" />
            <mxPoint x="1310" y="710" as="targetPoint" />
          </mxGeometry>
        </mxCell>
        <mxCell id="7W5CvfdrQPlZcDnJv3r3-103" value="&lt;p style=&quot;margin:0px;margin-top:4px;text-align:center;&quot;&gt;&lt;b&gt;MyToolBar&lt;/b&gt;&lt;/p&gt;" style="verticalAlign=top;align=left;overflow=fill;fontSize=12;fontFamily=Helvetica;html=1;whiteSpace=wrap;" parent="WIyWlLk6GJQsqaUBKTNV-1" vertex="1">
          <mxGeometry x="1140" y="715" width="160" height="25" as="geometry" />
        </mxCell>
        <mxCell id="7W5CvfdrQPlZcDnJv3r3-104" value="&lt;p style=&quot;margin:0px;margin-top:4px;text-align:center;&quot;&gt;&lt;b&gt;MyMenuBar&lt;/b&gt;&lt;/p&gt;" style="verticalAlign=top;align=left;overflow=fill;fontSize=12;fontFamily=Helvetica;html=1;whiteSpace=wrap;" parent="WIyWlLk6GJQsqaUBKTNV-1" vertex="1">
          <mxGeometry x="1230" y="760" width="160" height="25" as="geometry" />
        </mxCell>
        <mxCell id="7W5CvfdrQPlZcDnJv3r3-105" value="&lt;p style=&quot;margin:0px;margin-top:4px;text-align:center;&quot;&gt;&lt;b&gt;DiagramView&lt;/b&gt;&lt;/p&gt;&lt;hr size=&quot;1&quot;&gt;&lt;p style=&quot;margin:0px;margin-left:4px;&quot;&gt;- diagram: Diagram&lt;/p&gt;&lt;hr size=&quot;1&quot;&gt;&lt;p style=&quot;margin:0px;margin-left:4px;&quot;&gt;+ update(Object): void&lt;/p&gt;&lt;p style=&quot;margin:0px;margin-left:4px;&quot;&gt;+ equals(Object): bool&lt;/p&gt;" style="verticalAlign=top;align=left;overflow=fill;fontSize=12;fontFamily=Helvetica;html=1;whiteSpace=wrap;" parent="WIyWlLk6GJQsqaUBKTNV-1" vertex="1">
          <mxGeometry x="1230" y="820" width="160" height="90" as="geometry" />
        </mxCell>
        <mxCell id="7W5CvfdrQPlZcDnJv3r3-106" value="&lt;p style=&quot;margin:0px;margin-top:4px;text-align:center;&quot;&gt;&lt;b&gt;PackageView&lt;/b&gt;&lt;/p&gt;&lt;hr size=&quot;1&quot;&gt;&lt;p style=&quot;margin:0px;margin-left:4px;&quot;&gt;- lPackageName: JLabel&lt;/p&gt;&lt;p style=&quot;margin:0px;margin-left:4px;&quot;&gt;- lAuthor: JLabel&lt;/p&gt;&lt;p style=&quot;margin:0px;margin-left:4px;&quot;&gt;- packageName: String = &quot;&quot;&lt;/p&gt;&lt;p style=&quot;margin:0px;margin-left:4px;&quot;&gt;- author: String&lt;/p&gt;&lt;p style=&quot;margin:0px;margin-left:4px;&quot;&gt;- packageP: ClassyNode = null&lt;/p&gt;&lt;p style=&quot;margin:0px;margin-left:4px;&quot;&gt;- tabbedPane: JTabbedPane&lt;/p&gt;&lt;p style=&quot;margin:0px;margin-left:4px;&quot;&gt;- tabs: DiagramView [*]&lt;/p&gt;&lt;hr size=&quot;1&quot;&gt;&lt;p style=&quot;margin:0px;margin-left:4px;&quot;&gt;+ updateWorkspace (ClassyNode): void&lt;/p&gt;&lt;p style=&quot;margin:0px;margin-left:4px;&quot;&gt;+ update (Object): void&lt;/p&gt;" style="verticalAlign=top;align=left;overflow=fill;fontSize=12;fontFamily=Helvetica;html=1;whiteSpace=wrap;" parent="WIyWlLk6GJQsqaUBKTNV-1" vertex="1">
          <mxGeometry x="1410" y="860" width="160" height="230" as="geometry" />
        </mxCell>
        <mxCell id="7W5CvfdrQPlZcDnJv3r3-107" value="" style="endArrow=block;dashed=1;endFill=0;endSize=12;html=1;rounded=0;exitX=0.905;exitY=-0.033;exitDx=0;exitDy=0;exitPerimeter=0;entryX=0.051;entryY=1.088;entryDx=0;entryDy=0;entryPerimeter=0;" parent="WIyWlLk6GJQsqaUBKTNV-1" source="7W5CvfdrQPlZcDnJv3r3-105" target="7W5CvfdrQPlZcDnJv3r3-11" edge="1">
          <mxGeometry width="160" relative="1" as="geometry">
            <mxPoint x="1200" y="710" as="sourcePoint" />
            <mxPoint x="1360" y="710" as="targetPoint" />
          </mxGeometry>
        </mxCell>
        <mxCell id="7W5CvfdrQPlZcDnJv3r3-108" value="" style="endArrow=block;dashed=1;endFill=0;endSize=12;html=1;rounded=0;exitX=0.605;exitY=-0.051;exitDx=0;exitDy=0;exitPerimeter=0;entryX=0.139;entryY=1.008;entryDx=0;entryDy=0;entryPerimeter=0;" parent="WIyWlLk6GJQsqaUBKTNV-1" source="7W5CvfdrQPlZcDnJv3r3-106" target="7W5CvfdrQPlZcDnJv3r3-11" edge="1">
          <mxGeometry width="160" relative="1" as="geometry">
            <mxPoint x="1200" y="710" as="sourcePoint" />
            <mxPoint x="1360" y="710" as="targetPoint" />
          </mxGeometry>
        </mxCell>
        <mxCell id="7W5CvfdrQPlZcDnJv3r3-109" value="&lt;p style=&quot;margin:0px;margin-top:4px;text-align:center;&quot;&gt;&lt;i&gt;&amp;lt;&amp;lt;Interface&amp;gt;&amp;gt;&lt;/i&gt;&lt;br&gt;&lt;b&gt;IWorkspace&lt;/b&gt;&lt;/p&gt;&lt;hr size=&quot;1&quot;&gt;&lt;p style=&quot;margin:0px;margin-left:4px;&quot;&gt;# generateWorkspace () PackageView&lt;/p&gt;" style="verticalAlign=top;align=left;overflow=fill;fontSize=12;fontFamily=Helvetica;html=1;whiteSpace=wrap;" parent="WIyWlLk6GJQsqaUBKTNV-1" vertex="1">
          <mxGeometry x="1030" y="950" width="220" height="70" as="geometry" />
        </mxCell>
        <mxCell id="7W5CvfdrQPlZcDnJv3r3-110" value="&lt;p style=&quot;margin:0px;margin-top:4px;text-align:center;&quot;&gt;&lt;b&gt;WorkSpaceImplementation&lt;/b&gt;&lt;/p&gt;&lt;hr size=&quot;1&quot;&gt;&lt;p style=&quot;margin:0px;margin-left:4px;&quot;&gt;- packageView: PackageView&lt;/p&gt;&lt;hr size=&quot;1&quot;&gt;&lt;p style=&quot;margin:0px;margin-left:4px;&quot;&gt;+ generateWorkspace(): PackageView&lt;/p&gt;" style="verticalAlign=top;align=left;overflow=fill;fontSize=12;fontFamily=Helvetica;html=1;whiteSpace=wrap;" parent="WIyWlLk6GJQsqaUBKTNV-1" vertex="1">
          <mxGeometry x="1040" y="1090" width="210" height="90" as="geometry" />
        </mxCell>
        <mxCell id="7W5CvfdrQPlZcDnJv3r3-111" value="" style="endArrow=block;dashed=1;endFill=0;endSize=12;html=1;rounded=0;exitX=0.661;exitY=-0.02;exitDx=0;exitDy=0;exitPerimeter=0;" parent="WIyWlLk6GJQsqaUBKTNV-1" source="7W5CvfdrQPlZcDnJv3r3-110" target="7W5CvfdrQPlZcDnJv3r3-109" edge="1">
          <mxGeometry width="160" relative="1" as="geometry">
            <mxPoint x="1200" y="1110" as="sourcePoint" />
            <mxPoint x="1360" y="1110" as="targetPoint" />
          </mxGeometry>
        </mxCell>
        <mxCell id="7W5CvfdrQPlZcDnJv3r3-112" value="&lt;p style=&quot;margin:0px;margin-top:4px;text-align:center;&quot;&gt;&lt;b&gt;Main&lt;/b&gt;&lt;/p&gt;&lt;hr size=&quot;1&quot;&gt;&lt;p style=&quot;margin:0px;margin-left:4px;&quot;&gt;+ &lt;u&gt;main(String []): void&lt;/u&gt;&lt;/p&gt;" style="verticalAlign=top;align=left;overflow=fill;fontSize=12;fontFamily=Helvetica;html=1;whiteSpace=wrap;" parent="WIyWlLk6GJQsqaUBKTNV-1" vertex="1">
          <mxGeometry x="1860" y="1050" width="160" height="60" as="geometry" />
        </mxCell>
        <mxCell id="tzUZ03dXY27t_Kz95n3J-0" value="" style="endArrow=block;endSize=16;endFill=0;html=1;rounded=0;exitX=0;exitY=0;exitDx=0;exitDy=0;" edge="1" parent="WIyWlLk6GJQsqaUBKTNV-1" source="7W5CvfdrQPlZcDnJv3r3-24" target="7W5CvfdrQPlZcDnJv3r3-16">
          <mxGeometry x="0.0039" width="160" relative="1" as="geometry">
            <mxPoint x="460" y="300" as="sourcePoint" />
            <mxPoint x="620" y="300" as="targetPoint" />
            <mxPoint as="offset" />
          </mxGeometry>
        </mxCell>
        <mxCell id="tzUZ03dXY27t_Kz95n3J-1" value="" style="endArrow=diamondThin;endFill=1;endSize=24;html=1;rounded=0;exitX=1.007;exitY=0.895;exitDx=0;exitDy=0;exitPerimeter=0;entryX=-0.013;entryY=0.336;entryDx=0;entryDy=0;entryPerimeter=0;" edge="1" parent="WIyWlLk6GJQsqaUBKTNV-1" source="7W5CvfdrQPlZcDnJv3r3-16" target="7W5CvfdrQPlZcDnJv3r3-24">
          <mxGeometry width="160" relative="1" as="geometry">
            <mxPoint x="460" y="300" as="sourcePoint" />
            <mxPoint x="620" y="300" as="targetPoint" />
          </mxGeometry>
        </mxCell>
        <mxCell id="tzUZ03dXY27t_Kz95n3J-2" value="1..*" style="text;strokeColor=none;fillColor=none;align=left;verticalAlign=middle;spacingLeft=4;spacingRight=4;overflow=hidden;points=[[0,0.5],[1,0.5]];portConstraint=eastwest;rotatable=0;whiteSpace=wrap;html=1;" vertex="1" parent="WIyWlLk6GJQsqaUBKTNV-1">
          <mxGeometry x="640" y="357" width="30" height="20" as="geometry" />
        </mxCell>
        <mxCell id="tzUZ03dXY27t_Kz95n3J-8" value="&lt;p style=&quot;margin:0px;margin-top:4px;text-align:center;&quot;&gt;&lt;br&gt;&lt;b&gt;AbstractAction&lt;/b&gt;&lt;/p&gt;" style="verticalAlign=top;align=left;overflow=fill;fontSize=12;fontFamily=Helvetica;html=1;whiteSpace=wrap;" vertex="1" parent="WIyWlLk6GJQsqaUBKTNV-1">
          <mxGeometry x="1390" y="15" width="140" height="50" as="geometry" />
        </mxCell>
        <mxCell id="tzUZ03dXY27t_Kz95n3J-9" value="" style="endArrow=block;endSize=16;endFill=0;html=1;rounded=0;exitX=0.702;exitY=0.022;exitDx=0;exitDy=0;exitPerimeter=0;entryX=0.206;entryY=0.968;entryDx=0;entryDy=0;entryPerimeter=0;" edge="1" parent="WIyWlLk6GJQsqaUBKTNV-1" target="tzUZ03dXY27t_Kz95n3J-8">
          <mxGeometry width="160" relative="1" as="geometry">
            <mxPoint x="1496.3400000000001" y="117.18000000000002" as="sourcePoint" />
            <mxPoint x="1421.15" y="69.99999999999996" as="targetPoint" />
          </mxGeometry>
        </mxCell>
        <mxCell id="tzUZ03dXY27t_Kz95n3J-18" value="&lt;p style=&quot;margin:0px;margin-top:4px;text-align:center;&quot;&gt;&lt;br&gt;&lt;b&gt;DefaultTreeCellEditor&lt;/b&gt;&lt;/p&gt;" style="verticalAlign=top;align=left;overflow=fill;fontSize=12;fontFamily=Helvetica;html=1;whiteSpace=wrap;" vertex="1" parent="WIyWlLk6GJQsqaUBKTNV-1">
          <mxGeometry x="1955" y="220" width="140" height="50" as="geometry" />
        </mxCell>
        <mxCell id="tzUZ03dXY27t_Kz95n3J-19" value="Extends" style="endArrow=block;endSize=16;endFill=0;html=1;rounded=0;exitX=0.594;exitY=-0.01;exitDx=0;exitDy=0;exitPerimeter=0;entryX=0.85;entryY=1.028;entryDx=0;entryDy=0;entryPerimeter=0;" edge="1" parent="WIyWlLk6GJQsqaUBKTNV-1" source="7W5CvfdrQPlZcDnJv3r3-84" target="tzUZ03dXY27t_Kz95n3J-18">
          <mxGeometry width="160" relative="1" as="geometry">
            <mxPoint x="2130" y="254" as="sourcePoint" />
            <mxPoint x="2290" y="254" as="targetPoint" />
          </mxGeometry>
        </mxCell>
        <mxCell id="tzUZ03dXY27t_Kz95n3J-22" value="«interface»&lt;br&gt;&lt;b&gt;ActionListener&lt;/b&gt;" style="html=1;whiteSpace=wrap;" vertex="1" parent="WIyWlLk6GJQsqaUBKTNV-1">
          <mxGeometry x="2145" y="130" width="110" height="50" as="geometry" />
        </mxCell>
        <mxCell id="tzUZ03dXY27t_Kz95n3J-23" value="" style="endArrow=block;dashed=1;endFill=0;endSize=12;html=1;rounded=0;exitX=0.75;exitY=0;exitDx=0;exitDy=0;entryX=0.5;entryY=1;entryDx=0;entryDy=0;" edge="1" parent="WIyWlLk6GJQsqaUBKTNV-1" source="7W5CvfdrQPlZcDnJv3r3-84" target="tzUZ03dXY27t_Kz95n3J-22">
          <mxGeometry width="160" relative="1" as="geometry">
            <mxPoint x="2170" y="260" as="sourcePoint" />
            <mxPoint x="2330" y="260" as="targetPoint" />
          </mxGeometry>
        </mxCell>
        <mxCell id="tzUZ03dXY27t_Kz95n3J-26" value="«interface»&lt;br&gt;&lt;b&gt;TreeSelectionListener&lt;/b&gt;" style="html=1;whiteSpace=wrap;" vertex="1" parent="WIyWlLk6GJQsqaUBKTNV-1">
          <mxGeometry x="2199" y="470" width="140" height="50" as="geometry" />
        </mxCell>
        <mxCell id="tzUZ03dXY27t_Kz95n3J-27" value="" style="endArrow=block;dashed=1;endFill=0;endSize=12;html=1;rounded=0;entryX=0.599;entryY=1.036;entryDx=0;entryDy=0;exitX=1.004;exitY=0.903;exitDx=0;exitDy=0;exitPerimeter=0;entryPerimeter=0;" edge="1" parent="WIyWlLk6GJQsqaUBKTNV-1" source="7W5CvfdrQPlZcDnJv3r3-85" target="tzUZ03dXY27t_Kz95n3J-26">
          <mxGeometry width="160" relative="1" as="geometry">
            <mxPoint x="2290" y="570" as="sourcePoint" />
            <mxPoint x="2090" y="340" as="targetPoint" />
          </mxGeometry>
        </mxCell>
        <mxCell id="tzUZ03dXY27t_Kz95n3J-28" value="«interface»&lt;br&gt;&lt;b&gt;MouseListener&lt;/b&gt;" style="html=1;whiteSpace=wrap;" vertex="1" parent="WIyWlLk6GJQsqaUBKTNV-1">
          <mxGeometry x="2229" y="600" width="110" height="50" as="geometry" />
        </mxCell>
        <mxCell id="tzUZ03dXY27t_Kz95n3J-29" value="" style="endArrow=block;dashed=1;endFill=0;endSize=12;html=1;rounded=0;exitX=1.017;exitY=0.83;exitDx=0;exitDy=0;exitPerimeter=0;entryX=0.25;entryY=1;entryDx=0;entryDy=0;" edge="1" parent="WIyWlLk6GJQsqaUBKTNV-1" source="7W5CvfdrQPlZcDnJv3r3-86" target="tzUZ03dXY27t_Kz95n3J-28">
          <mxGeometry width="160" relative="1" as="geometry">
            <mxPoint x="1930" y="730" as="sourcePoint" />
            <mxPoint x="2090" y="730" as="targetPoint" />
          </mxGeometry>
        </mxCell>
        <mxCell id="tzUZ03dXY27t_Kz95n3J-30" value="&lt;p style=&quot;margin:0px;margin-top:4px;text-align:center;&quot;&gt;&lt;b&gt;DefaultMutableTreeNode&lt;br&gt;&lt;/b&gt;&lt;/p&gt;" style="verticalAlign=top;align=left;overflow=fill;fontSize=12;fontFamily=Helvetica;html=1;whiteSpace=wrap;" vertex="1" parent="WIyWlLk6GJQsqaUBKTNV-1">
          <mxGeometry x="1825" y="290" width="160" height="30" as="geometry" />
        </mxCell>
        <mxCell id="tzUZ03dXY27t_Kz95n3J-31" value="" style="endArrow=block;endSize=16;endFill=0;html=1;rounded=0;entryX=0.646;entryY=1.007;entryDx=0;entryDy=0;entryPerimeter=0;" edge="1" parent="WIyWlLk6GJQsqaUBKTNV-1" source="7W5CvfdrQPlZcDnJv3r3-87" target="tzUZ03dXY27t_Kz95n3J-30">
          <mxGeometry width="160" relative="1" as="geometry">
            <mxPoint x="1800" y="560" as="sourcePoint" />
            <mxPoint x="1960" y="560" as="targetPoint" />
          </mxGeometry>
        </mxCell>
        <mxCell id="tzUZ03dXY27t_Kz95n3J-32" value="&lt;p style=&quot;margin:0px;margin-top:4px;text-align:center;&quot;&gt;&lt;br&gt;&lt;b&gt;JTree&lt;/b&gt;&lt;/p&gt;" style="verticalAlign=top;align=left;overflow=fill;fontSize=12;fontFamily=Helvetica;html=1;whiteSpace=wrap;" vertex="1" parent="WIyWlLk6GJQsqaUBKTNV-1">
          <mxGeometry x="1890" y="576" width="85" height="42" as="geometry" />
        </mxCell>
        <mxCell id="tzUZ03dXY27t_Kz95n3J-33" value="" style="endArrow=block;endSize=16;endFill=0;html=1;rounded=0;exitX=0.586;exitY=0.99;exitDx=0;exitDy=0;exitPerimeter=0;" edge="1" parent="WIyWlLk6GJQsqaUBKTNV-1" source="7W5CvfdrQPlZcDnJv3r3-89" target="tzUZ03dXY27t_Kz95n3J-32">
          <mxGeometry width="160" relative="1" as="geometry">
            <mxPoint x="1800" y="740" as="sourcePoint" />
            <mxPoint x="1960" y="740" as="targetPoint" />
          </mxGeometry>
        </mxCell>
        <mxCell id="tzUZ03dXY27t_Kz95n3J-34" value="&lt;p style=&quot;margin:0px;margin-top:4px;text-align:center;&quot;&gt;&lt;br&gt;&lt;b&gt;DefaultTreeCellRenderer&lt;/b&gt;&lt;/p&gt;" style="verticalAlign=top;align=left;overflow=fill;fontSize=12;fontFamily=Helvetica;html=1;whiteSpace=wrap;" vertex="1" parent="WIyWlLk6GJQsqaUBKTNV-1">
          <mxGeometry x="1710" y="572" width="160" height="50" as="geometry" />
        </mxCell>
        <mxCell id="tzUZ03dXY27t_Kz95n3J-35" value="" style="endArrow=block;endSize=16;endFill=0;html=1;rounded=0;exitX=0.416;exitY=0.018;exitDx=0;exitDy=0;exitPerimeter=0;entryX=0.585;entryY=1.012;entryDx=0;entryDy=0;entryPerimeter=0;" edge="1" parent="WIyWlLk6GJQsqaUBKTNV-1" source="7W5CvfdrQPlZcDnJv3r3-88" target="tzUZ03dXY27t_Kz95n3J-34">
          <mxGeometry width="160" relative="1" as="geometry">
            <mxPoint x="1800" y="740" as="sourcePoint" />
            <mxPoint x="1960" y="740" as="targetPoint" />
          </mxGeometry>
        </mxCell>
        <mxCell id="tzUZ03dXY27t_Kz95n3J-36" value="&lt;p style=&quot;margin:0px;margin-top:4px;text-align:center;&quot;&gt;&lt;br&gt;&lt;b&gt;JFrame&lt;/b&gt;&lt;/p&gt;" style="verticalAlign=top;align=left;overflow=fill;fontSize=12;fontFamily=Helvetica;html=1;whiteSpace=wrap;" vertex="1" parent="WIyWlLk6GJQsqaUBKTNV-1">
          <mxGeometry x="1600" y="880" width="90" height="50" as="geometry" />
        </mxCell>
        <mxCell id="tzUZ03dXY27t_Kz95n3J-37" value="" style="endArrow=block;endSize=16;endFill=0;html=1;rounded=0;exitX=0.362;exitY=0.991;exitDx=0;exitDy=0;exitPerimeter=0;entryX=0.75;entryY=0;entryDx=0;entryDy=0;" edge="1" parent="WIyWlLk6GJQsqaUBKTNV-1" source="7W5CvfdrQPlZcDnJv3r3-95" target="tzUZ03dXY27t_Kz95n3J-36">
          <mxGeometry width="160" relative="1" as="geometry">
            <mxPoint x="1610" y="740" as="sourcePoint" />
            <mxPoint x="1770" y="740" as="targetPoint" />
          </mxGeometry>
        </mxCell>
        <mxCell id="tzUZ03dXY27t_Kz95n3J-38" value="&lt;p style=&quot;margin:0px;margin-top:4px;text-align:center;&quot;&gt;&lt;br&gt;&lt;b&gt;JMenuBar&lt;/b&gt;&lt;/p&gt;" style="verticalAlign=top;align=left;overflow=fill;fontSize=12;fontFamily=Helvetica;html=1;whiteSpace=wrap;" vertex="1" parent="WIyWlLk6GJQsqaUBKTNV-1">
          <mxGeometry x="1110" y="801" width="90" height="48" as="geometry" />
        </mxCell>
        <mxCell id="tzUZ03dXY27t_Kz95n3J-39" value="&lt;p style=&quot;margin:0px;margin-top:4px;text-align:center;&quot;&gt;&lt;br&gt;&lt;b&gt;JToolBar&lt;/b&gt;&lt;/p&gt;" style="verticalAlign=top;align=left;overflow=fill;fontSize=12;fontFamily=Helvetica;html=1;whiteSpace=wrap;" vertex="1" parent="WIyWlLk6GJQsqaUBKTNV-1">
          <mxGeometry x="1351.25" y="700" width="57.5" height="40" as="geometry" />
        </mxCell>
        <mxCell id="tzUZ03dXY27t_Kz95n3J-40" value="" style="endArrow=block;endSize=16;endFill=0;html=1;rounded=0;exitX=0;exitY=0.5;exitDx=0;exitDy=0;" edge="1" parent="WIyWlLk6GJQsqaUBKTNV-1" source="7W5CvfdrQPlZcDnJv3r3-104" target="tzUZ03dXY27t_Kz95n3J-38">
          <mxGeometry x="-0.2665" y="9" width="160" relative="1" as="geometry">
            <mxPoint x="1150" y="740" as="sourcePoint" />
            <mxPoint x="1310" y="740" as="targetPoint" />
            <mxPoint as="offset" />
          </mxGeometry>
        </mxCell>
        <mxCell id="tzUZ03dXY27t_Kz95n3J-41" value="" style="endArrow=block;endSize=16;endFill=0;html=1;rounded=0;exitX=1;exitY=0.5;exitDx=0;exitDy=0;entryX=0;entryY=0.25;entryDx=0;entryDy=0;" edge="1" parent="WIyWlLk6GJQsqaUBKTNV-1" source="7W5CvfdrQPlZcDnJv3r3-103" target="tzUZ03dXY27t_Kz95n3J-39">
          <mxGeometry width="160" relative="1" as="geometry">
            <mxPoint x="1150" y="740" as="sourcePoint" />
            <mxPoint x="1310" y="740" as="targetPoint" />
          </mxGeometry>
        </mxCell>
        <mxCell id="tzUZ03dXY27t_Kz95n3J-42" value="&lt;p style=&quot;margin:0px;margin-top:4px;text-align:center;&quot;&gt;&lt;br&gt;&lt;b&gt;JPanel&lt;/b&gt;&lt;/p&gt;" style="verticalAlign=top;align=left;overflow=fill;fontSize=12;fontFamily=Helvetica;html=1;whiteSpace=wrap;" vertex="1" parent="WIyWlLk6GJQsqaUBKTNV-1">
          <mxGeometry x="1276.25" y="990" width="90" height="40" as="geometry" />
        </mxCell>
        <mxCell id="tzUZ03dXY27t_Kz95n3J-43" value="" style="endArrow=block;endSize=16;endFill=0;html=1;rounded=0;entryX=0.16;entryY=-0.045;entryDx=0;entryDy=0;entryPerimeter=0;" edge="1" parent="WIyWlLk6GJQsqaUBKTNV-1" source="7W5CvfdrQPlZcDnJv3r3-105" target="tzUZ03dXY27t_Kz95n3J-42">
          <mxGeometry width="160" relative="1" as="geometry">
            <mxPoint x="1430" y="740" as="sourcePoint" />
            <mxPoint x="1590" y="740" as="targetPoint" />
          </mxGeometry>
        </mxCell>
        <mxCell id="tzUZ03dXY27t_Kz95n3J-44" value="" style="endArrow=block;endSize=16;endFill=0;html=1;rounded=0;entryX=0.615;entryY=-0.005;entryDx=0;entryDy=0;entryPerimeter=0;exitX=-0.015;exitY=0.297;exitDx=0;exitDy=0;exitPerimeter=0;" edge="1" parent="WIyWlLk6GJQsqaUBKTNV-1" source="7W5CvfdrQPlZcDnJv3r3-106" target="tzUZ03dXY27t_Kz95n3J-42">
          <mxGeometry width="160" relative="1" as="geometry">
            <mxPoint x="1430" y="740" as="sourcePoint" />
            <mxPoint x="1590" y="740" as="targetPoint" />
          </mxGeometry>
        </mxCell>
      </root>
    </mxGraphModel>
  </diagram>
</mxfile>
